<?xml version="1.0" standalone="no"?><svg xmlns="http://www.w3.org/2000/svg" viewBox="0 0 1440 320"><path fill="#0099ff" fill-opacity="1" d="M0,224L17.1,240C34.3,256,69,288,103,277.3C137.1,267,171,213,206,197.3C240,181,274,203,309,192C342.9,181,377,139,411,144C445.7,149,480,203,514,186.7C548.6,171,583,85,617,96C651.4,107,686,213,720,245.3C754.3,277,789,235,823,234.7C857.1,235,891,277,926,250.7C960,224,994,128,1029,106.7C1062.9,85,1097,139,1131,149.3C1165.7,160,1200,128,1234,117.3C1268.6,107,1303,117,1337,112C1371.4,107,1406,85,1423,74.7L1440,64L1440,0L1422.9,0C1405.7,0,1371,0,1337,0C1302.9,0,1269,0,1234,0C1200,0,1166,0,1131,0C1097.1,0,1063,0,1029,0C994.3,0,960,0,926,0C891.4,0,857,0,823,0C788.6,0,754,0,720,0C685.7,0,651,0,617,0C582.9,0,549,0,514,0C480,0,446,0,411,0C377.1,0,343,0,309,0C274.3,0,240,0,206,0C171.4,0,137,0,103,0C68.6,0,34,0,17,0L0,0Z"></path></svg>